<svg xmlns="http://www.w3.org/2000/svg" xmlns:xlink="http://www.w3.org/1999/xlink"><defs>

<symbol id="share" viewBox="0 0 512 512"><path d="M356.814,171.815c-15.021,0-29.121,3.938-41.329,10.834c-8.066,4.557-17.998,4.275-25.799-0.721l-87.311-55.909c-6.749-4.322-11.013-11.62-11.479-19.621C189.084,75.265,163.213,50,131,50c-33.137,0-60,26.863-60,60c0,42.486,42.832,71.156,81.814,55.898c7.459-2.919,15.866-2.083,22.612,2.236l75.168,48.134c13.644,8.737,21.974,23.859,22.036,40.06c0,0.004,0,0.008,0,0.012c0.062,15.71-7.933,30.359-21.163,38.831l-76.042,48.693c-6.735,4.313-15.163,5.151-22.611,2.236C113.785,330.828,71,359.574,71,402c0,33.137,26.863,60,60,60c32.186,0,58.085-25.241,59.897-56.397c0.464-7.988,4.74-15.307,11.479-19.622l87.31-55.909c7.793-4.99,17.741-5.272,25.799-0.721c12.208,6.896,26.308,10.835,41.329,10.835C403.309,340.186,441,302.493,441,256C441,209.506,403.309,171.815,356.814,171.815z"/></symbol>

<symbol id="th-large" viewBox="0 -256 1792 1792"><path d="M 768,512 V 128 Q 768,76 730,38 692,0 640,0 H 128 Q 76,0 38,38 0,76 0,128 v 384 q 0,52 38,90 38,38 90,38 h 512 q 52,0 90,-38 38,-38 38,-90 z m 0,768 V 896 q 0,-52 -38,-90 -38,-38 -90,-38 H 128 Q 76,768 38,806 0,844 0,896 v 384 q 0,52 38,90 38,38 90,38 h 512 q 52,0 90,-38 38,-38 38,-90 z M 1664,512 V 128 q 0,-52 -38,-90 -38,-38 -90,-38 h -512 q -52,0 -90,38 -38,38 -38,90 v 384 q 0,52 38,90 38,38 90,38 h 512 q 52,0 90,-38 38,-38 38,-90 z m 0,768 V 896 q 0,-52 -38,-90 -38,-38 -90,-38 h -512 q -52,0 -90,38 -38,38 -38,90 v 384 q 0,52 38,90 38,38 90,38 h 512 q 52,0 90,-38 38,-38 38,-90 z"/></symbol>

<symbol id="bars" viewBox="0 0 512 512"><path d="M462,163.5H50v-65h412V163.5z M462,223.5H50v65h412V223.5z M462,348.5H50v65h412V348.5z"/></symbol>

<symbol id="arrow-right" viewBox="0 0 512 512"><polygon points="148.649,103.433 205.291,50.092 404.541,261.68 193.906,461.936 140.296,405.546 294.81,258.646"/></symbol>
<symbol id="arrow-left" viewBox="0 0 512 512"><polygon points="394.038,409.248 336.664,461.801 140.357,247.479 353.738,50.152 406.564,107.277 250.036,252.028"/></symbol>
<symbol id="arrow-down" viewBox="0 0 512 512"><polygon points="425.852,133.302 478.799,190.311 265.84,388.094 67.044,176.081 123.803,122.862 269.631,278.387"/></symbol>
<symbol id="arrow-up" viewBox="0 0 512 512"><polygon points="120.726,381.877 66.994,325.605 277.2,124.899 478.906,334.145 422.889,388.143 274.925,234.648"/></symbol>

<symbol id="more" viewBox="0 0 512 512"><path d="M153.415,256c0,28.558-23.15,51.708-51.707,51.708C73.15,307.708,50,284.558,50,256s23.15-51.708,51.708-51.708C130.265,204.292,153.415,227.442,153.415,256z M256,204.292c-28.558,0-51.708,23.15-51.708,51.708s23.15,51.708,51.708,51.708s51.708-23.15,51.708-51.708S284.558,204.292,256,204.292z M410.292,204.292c-28.557,0-51.707,23.15-51.707,51.708s23.15,51.708,51.707,51.708C438.85,307.708,462,284.558,462,256S438.85,204.292,410.292,204.292z"/></symbol>

<symbol id="heart" viewBox="0 0 512 512"><path d="M394.822,80.893c-63.02-33.261-129.5,0.833-138.822,45.45c-9.322-44.616-75.803-78.71-138.822-45.45c-84,44.333-117,201.333,138.822,363.56C511.822,282.226,478.822,125.226,394.822,80.893z"/></symbol>

<symbol id="close" viewBox="0 0 612 612"><polygon points="612,36.004 576.521,0.603 306,270.608 35.478,0.603 0,36.004 270.522,306.011 0,575.997 35.478,611.397 306,341.411 576.521,611.397 612,575.997 341.459,306.011"/></symbol>

<symbol id="phone" viewBox="0 0 512 512"><path d="M266.71,161.055l-34.188,17.167L176.756,67.167L210.944,50L266.71,161.055z M343.059,313.099l-34.188,17.167l55.765,111.058l34.189-17.169L343.059,313.099z M212.686,190.197L156.066,77.445c-22.941,12.257-87.766,40.704,7.56,230.54c95.761,190.703,155.069,155.406,180.344,143.662l-56.572-112.664C251.062,356.964,177.049,209.504,212.686,190.197z"/></symbol>

<symbol id="kukac" viewBox="0 0 512 512"><path d="M373.945,148.019c-2.779,9.269-11.122,37.539-13.439,47.735l-27.807,102.884c-1.39,5.097-1.854,9.732-1.854,13.903c0,7.414,4.171,11.586,12.05,11.586c8.806,0,19.928-4.636,29.196-12.05c22.709-17.61,37.538-51.906,37.538-87.591c0-42.636-19.928-79.713-53.295-100.566c-20.854-12.514-50.051-19.465-82.956-19.465c-97.785,0-166.375,64.882-166.375,156.644c0,88.981,61.638,147.374,154.789,147.374c24.1,0,49.588-3.707,70.906-10.196c18.074-5.561,29.66-11.122,51.906-24.562l28.271,40.782c-25.027,14.831-36.149,20.393-57.932,26.879c-31.514,9.734-64.881,14.831-98.248,14.831c-65.346,0-116.326-18.538-152.937-55.149C69.001,366.763,50,317.638,50,263.879c0-57.467,19.466-107.056,56.54-144.595c42.637-42.636,98.714-63.491,170.546-63.491C385.069,55.793,462,125.31,462,222.169c0,43.563-15.757,83.419-44.027,111.689c-24.1,24.1-55.613,38.003-86.663,38.003c-18.074,0-32.904-6.952-39.856-18.074c-2.317-3.707-2.781-6.025-4.171-14.367c-17.611,20.392-36.149,29.196-62.1,29.196c-45.882,0-75.078-34.294-75.078-87.127c0-78.321,51.441-143.202,113.078-143.202c25.953,0,38.931,6.486,51.442,25.953l4.635-16.222H373.945z M278.478,285.66c11.122-21.781,18.536-50.051,18.536-71.37c0-19-10.657-31.976-26.878-31.976c-17.611,0-33.832,11.586-45.418,33.367c-11.123,20.854-18.538,48.197-18.538,69.515c0,24.563,9.269,37.539,26.881,37.539C250.207,322.735,266.428,309.296,278.478,285.66z"/></symbol>

<symbol id="facebook" viewBox="0 0 512 512"><path d="M204.067,184.692h-43.144v70.426h43.144V462h82.965V254.238h57.882l6.162-69.546h-64.044c0,0,0-25.97,0-39.615c0-16.398,3.302-22.89,19.147-22.89c12.766,0,44.896,0,44.896,0V50c0,0-47.326,0-57.441,0c-61.734,0-89.567,27.179-89.567,79.231C204.067,174.566,204.067,184.692,204.067,184.692z"/></symbol>

<symbol id="youtube" viewBox="0 0 1000 1000"><path d="M714.24 500.032q0 -20.646 -16.74 -30.132l-285.696 -178.56q-17.298 -11.16 -36.27 -1.116 -18.414 10.044 -18.414 31.248v357.12q0 21.204 18.414 31.248 8.928 4.464 17.298 4.464 11.16 0 18.972 -5.58l285.696 -178.56q16.74 -9.486 16.74 -30.132zm285.696 0q0 53.568 -.558 83.7t-4.743 76.167 -12.555 82.305q-8.928 40.734 -38.502 68.634t-69.192 32.364q-123.876 13.95 -374.418 13.95t-374.418 -13.95q-39.618 -4.464 -69.471 -32.364t-38.781 -68.634q-7.812 -36.27 -11.997 -82.305t-4.743 -76.167 -.558 -83.7 .558 -83.7 4.743 -76.167 12.555 -82.305q8.928 -40.734 38.502 -68.634t69.192 -32.364q123.876 -13.95 374.418 -13.95t374.418 13.95q39.618 4.464 69.471 32.364t38.781 68.634q7.812 36.27 11.997 82.305t4.743 76.167 .558 83.7z"/></symbol>

<symbol id="instagram" viewBox="0 0 512 512"><path d="M414.474,224.292h-35.869c2.613,10.145,4.156,20.744,4.156,31.699c0,70.023-56.752,126.773-126.761,126.773s-126.763-56.75-126.763-126.773c0-10.955,1.549-21.555,4.162-31.699H97.53V398.61c0,8.742,7.096,15.832,15.86,15.832h285.219c8.766,0,15.864-7.09,15.864-15.832V224.292z M414.474,113.378c0-8.75-7.099-15.846-15.864-15.846h-47.526c-8.756,0-15.846,7.096-15.846,15.846v47.545c0,8.744,7.09,15.846,15.846,15.846h47.526c8.766,0,15.864-7.102,15.864-15.846V113.378z M256,176.769c-43.763,0-79.233,35.463-79.233,79.223c0,43.756,35.471,79.24,79.233,79.24c43.759,0,79.237-35.484,79.237-79.24C335.237,212.231,299.759,176.769,256,176.769 M414.474,461.999H97.53c-26.246,0-47.53-21.289-47.53-47.557V97.532c0-26.254,21.284-47.531,47.53-47.531h316.943c26.25,0,47.526,21.277,47.526,47.531v316.91C462,440.71,440.724,461.999,414.474,461.999"/></symbol>

<symbol id="placeholder" viewBox="0 0 54.757 54.757"><path d="M40.94,5.617C37.318,1.995,32.502,0,27.38,0c-5.123,0-9.938,1.995-13.56,5.617c-6.703,6.702-7.536,19.312-1.804,26.952L27.38,54.757L42.721,32.6C48.476,24.929,47.643,12.319,40.94,5.617z M27.557,26c-3.859,0-7-3.141-7-7s3.141-7,7-7s7,3.141,7,7S31.416,26,27.557,26z"/></symbol>

<symbol id="messages" viewBox="0 0 437.212 437.212"><path d="M404.812,41.206h-300c-18,0-32.4,14.8-32.4,32.4v186.4c0,18,14.8,32.4,32.4,32.4h206.8l46.8,47.2c2,2,4.4,3.2,7.2,3.2     c5.6,0,10.4-4.4,10.4-10.4v-40h28.8c18,0,32.4-14.8,32.4-32.4v-186.4C437.212,55.606,422.412,41.206,404.812,41.206z      M150.812,201.606c-16.4,0-30-13.6-30-30c0-16.4,13.6-30,30-30c16.4,0,30,13.6,30,30     C180.812,188.006,167.612,201.606,150.812,201.606z M256.012,201.606c-16.4,0-30-13.6-30-30c0-16.4,13.6-30,30-30     c16.4,0,30,13.6,30,30C286.012,188.006,272.412,201.606,256.012,201.606z M360.812,201.606c-16.4,0-30-13.6-30-30     c0-16.4,13.6-30,30-30c16.4,0,30,13.6,30,30C390.812,188.006,377.212,201.606,360.812,201.606z"/><path d="M54.012,260.806v-63.6h-32.8c-11.6,0-21.2,9.6-21.2,21.2v122.4c-0.4,12.4,9.2,22,21.2,22h18.8v26.4     c0,3.6,3.2,6.8,6.8,6.8c2,0,3.6-0.8,4.8-2l30.8-30.8h136c11.6,0,21.2-9.6,21.2-21.2v-30.4h-134.8     C76.812,311.606,54.012,288.806,54.012,260.806z"/></symbol>


<symbol id="paperplane" viewBox="0 0 60.083 60.083"><path d="M60.049,10.871c0-0.002-0.001-0.005-0.001-0.007c-0.023-0.125-0.066-0.239-0.132-0.343c-0.001-0.001-0.001-0.003-0.001-0.004c-0.001-0.002-0.003-0.003-0.004-0.005c-0.063-0.098-0.139-0.182-0.232-0.253c-0.019-0.015-0.039-0.026-0.059-0.04c-0.075-0.049-0.152-0.09-0.239-0.117c-0.055-0.019-0.111-0.025-0.168-0.034c-0.044-0.006-0.083-0.026-0.129-0.026H59.08c-0.039-0.001-0.066,0.003-0.094,0.006c-0.009,0.001-0.017,0-0.026,0.001c-0.009,0.001-0.019,0-0.029,0.002c-0.027,0.004-0.054,0.008-0.08,0.014L0.798,22.062c-0.413,0.086-0.729,0.421-0.788,0.839s0.15,0.828,0.523,1.025l16.632,8.773l2.917,16.187c-0.002,0.012,0.001,0.025,0,0.037c-0.01,0.08-0.011,0.158-0.001,0.237c0.005,0.04,0.01,0.078,0.02,0.117c0.023,0.095,0.06,0.184,0.11,0.268c0.01,0.016,0.01,0.035,0.021,0.051c0.003,0.005,0.008,0.009,0.012,0.013c0.013,0.019,0.031,0.034,0.046,0.053c0.047,0.058,0.096,0.111,0.152,0.156c0.009,0.007,0.015,0.018,0.025,0.025c0.015,0.011,0.032,0.014,0.047,0.024c0.061,0.04,0.124,0.073,0.191,0.099c0.027,0.01,0.052,0.022,0.08,0.03c0.09,0.026,0.183,0.044,0.277,0.044c0.001,0,0.002,0,0.003,0h0c0,0,0,0,0,0c0.004,0,0.008-0.002,0.012-0.002c0.017,0.001,0.034,0.002,0.051,0.002c0.277,0,0.527-0.124,0.712-0.315l11.079-7.386l11.6,7.54c0.164,0.106,0.354,0.161,0.545,0.161c0.105,0,0.212-0.017,0.315-0.051c0.288-0.096,0.518-0.318,0.623-0.604l13.936-37.825c0.093-0.151,0.146-0.33,0.146-0.521C60.083,10.981,60.059,10.928,60.049,10.871z M48.464,17.594L24.471,35.236c-0.039,0.029-0.07,0.065-0.104,0.099c-0.013,0.012-0.026,0.022-0.037,0.035c-0.021,0.023-0.04,0.046-0.059,0.071c-0.018,0.024-0.032,0.049-0.048,0.074c-0.037,0.06-0.068,0.122-0.092,0.188c-0.005,0.013-0.013,0.023-0.017,0.036c-0.001,0.004-0.005,0.006-0.006,0.01l-2.75,8.937l-2.179-12.091L48.464,17.594z M22.908,46.61l2.726-9.004l4.244,2.759l1.214,0.789l-4.124,2.749L22.908,46.61z"/></symbol>




</defs></svg>