<?xml version="1.0" standalone="no"?>
<!DOCTYPE svg PUBLIC "-//W3C//DTD SVG 20010904//EN"
 "http://www.w3.org/TR/2001/REC-SVG-20010904/DTD/svg10.dtd">
<svg version="1.0" xmlns="http://www.w3.org/2000/svg"
 width="2916.000000pt" height="2916.000000pt" viewBox="0 0 2916.000000 2916.000000"
 preserveAspectRatio="xMidYMid meet">
<metadata>
Created by potrace 1.11, written by Peter Selinger 2001-2013
</metadata>
<g transform="translate(0.000000,2916.000000) scale(0.100000,-0.100000)"
fill="#000000" stroke="none">
<path d="M14627 28984 c-1 -1 -38 -5 -82 -8 -90 -7 -280 -45 -305 -61 -5 -3
-19 -8 -30 -10 -30 -6 -208 -91 -265 -128 -122 -77 -184 -133 -380 -338 -44
-46 -113 -113 -154 -149 -40 -36 -83 -74 -95 -85 -12 -11 -64 -58 -116 -105
-51 -47 -108 -98 -125 -115 -27 -25 -142 -129 -231 -210 -56 -51 -182 -165
-205 -186 -14 -13 -65 -60 -113 -104 -49 -44 -98 -89 -110 -100 -12 -11 -61
-55 -108 -98 -47 -42 -96 -87 -110 -100 -134 -122 -204 -186 -226 -206 -15
-13 -72 -65 -127 -115 -54 -50 -126 -116 -160 -146 -33 -31 -75 -69 -94 -85
-19 -17 -57 -52 -85 -78 -28 -27 -65 -61 -83 -76 -17 -14 -75 -67 -129 -116
-54 -50 -108 -99 -120 -110 -12 -11 -60 -55 -107 -98 -47 -43 -95 -87 -107
-97 -12 -10 -60 -54 -107 -97 -47 -43 -95 -87 -107 -98 -105 -95 -203 -184
-226 -205 -15 -14 -67 -61 -115 -105 -80 -72 -193 -176 -235 -215 -9 -8 -56
-51 -106 -95 -49 -44 -101 -91 -115 -105 -14 -14 -66 -61 -114 -105 -49 -44
-99 -89 -111 -100 -12 -11 -39 -36 -60 -55 -182 -165 -270 -245 -274 -250 -3
-3 -27 -25 -55 -49 -27 -24 -75 -67 -105 -95 -30 -28 -100 -92 -155 -141 -55
-50 -107 -97 -115 -105 -8 -8 -60 -55 -115 -105 -55 -49 -124 -112 -154 -140
-96 -88 -108 -99 -181 -165 -85 -76 -85 -77 -220 -200 -57 -52 -134 -122 -170
-155 -36 -33 -108 -99 -160 -147 -52 -47 -106 -96 -120 -108 -13 -12 -65 -58
-114 -103 -49 -45 -101 -93 -115 -105 -14 -13 -46 -42 -71 -65 -25 -23 -88
-80 -140 -127 -52 -47 -102 -92 -110 -100 -8 -8 -62 -58 -120 -110 -58 -52
-112 -101 -121 -110 -9 -8 -49 -45 -90 -81 -41 -37 -88 -80 -104 -95 -17 -16
-68 -63 -114 -104 -46 -41 -98 -88 -115 -105 -18 -16 -54 -50 -82 -74 -69 -62
-238 -216 -304 -277 -52 -47 -113 -103 -171 -156 -14 -12 -65 -59 -114 -103
-49 -44 -116 -105 -149 -136 -34 -30 -83 -75 -110 -100 -27 -24 -59 -53 -71
-64 -38 -36 -129 -118 -219 -200 -49 -44 -103 -93 -121 -110 -18 -16 -74 -68
-126 -115 -51 -47 -120 -110 -154 -140 -33 -30 -80 -73 -104 -95 -24 -22 -69
-63 -100 -91 -65 -60 -94 -86 -147 -134 -22 -19 -66 -59 -99 -90 -118 -108
-261 -237 -325 -295 -99 -90 -140 -127 -176 -160 -90 -84 -194 -178 -215 -196
-13 -11 -69 -62 -123 -112 -55 -51 -130 -119 -166 -152 -36 -32 -67 -61 -70
-65 -3 -3 -45 -41 -95 -85 -49 -44 -102 -91 -116 -105 -14 -14 -66 -61 -114
-105 -121 -109 -759 -689 -869 -789 -48 -45 -98 -90 -110 -101 -12 -11 -62
-56 -110 -100 -49 -44 -98 -89 -110 -100 -13 -11 -67 -60 -121 -110 -110 -100
-114 -104 -240 -219 -84 -76 -115 -104 -254 -231 -31 -27 -70 -64 -88 -81 -18
-17 -49 -46 -70 -64 -21 -18 -76 -67 -122 -109 -46 -42 -97 -89 -115 -104 -17
-16 -60 -49 -96 -75 -488 -345 -791 -871 -837 -1452 -11 -136 -6 -335 11 -425
2 -11 7 -42 10 -68 28 -191 122 -456 224 -630 18 -30 31 -44 271 -293 339
-350 613 -634 677 -700 38 -40 166 -172 284 -294 118 -122 237 -245 264 -274
27 -28 156 -161 286 -296 130 -135 297 -308 371 -384 74 -76 168 -174 209
-216 78 -81 421 -436 549 -569 40 -42 167 -173 281 -291 114 -118 241 -249
281 -291 92 -96 458 -475 559 -579 102 -105 472 -488 557 -576 37 -40 169
-176 293 -304 124 -128 254 -263 290 -300 36 -37 164 -170 286 -296 122 -126
245 -254 275 -285 30 -31 149 -154 264 -274 116 -119 250 -258 298 -309 49
-50 182 -188 296 -306 115 -118 237 -244 271 -280 34 -36 157 -163 274 -284
116 -120 240 -249 276 -286 36 -37 165 -170 286 -296 122 -126 250 -258 284
-294 34 -36 158 -164 275 -285 117 -121 246 -254 286 -296 41 -42 169 -175
284 -294 116 -120 241 -249 278 -289 38 -39 169 -174 290 -300 293 -302 307
-318 552 -571 116 -120 246 -255 290 -300 96 -99 474 -491 564 -584 35 -36
161 -167 280 -290 119 -123 245 -254 281 -291 95 -98 481 -498 580 -600 159
-165 495 -512 559 -579 35 -36 156 -162 270 -279 113 -118 241 -251 284 -295
231 -240 251 -259 357 -321 179 -107 431 -203 615 -235 33 -6 71 -13 85 -16
129 -25 514 -25 601 1 10 3 30 6 45 9 138 18 424 115 552 186 20 12 55 31 77
42 22 12 42 25 45 28 3 3 16 12 30 19 13 7 58 38 99 68 66 49 102 83 206 197
15 17 66 72 114 124 118 128 124 136 221 241 47 51 99 108 115 125 97 104 211
228 224 244 9 10 61 67 117 127 56 60 121 131 145 158 24 26 58 63 74 80 17
18 71 77 120 131 111 121 189 205 354 384 13 14 56 62 96 106 40 44 93 101
117 126 23 25 77 83 118 129 41 46 94 103 117 127 23 24 59 63 79 86 20 23 65
71 98 107 34 36 99 108 146 159 88 96 94 103 195 212 104 113 250 272 301 328
27 30 63 69 79 86 17 16 71 75 120 129 50 55 99 109 110 121 11 11 58 62 105
114 89 98 125 137 194 211 23 25 93 101 156 170 63 69 136 148 161 175 26 28
59 64 73 80 15 17 44 48 65 70 20 22 66 72 101 110 35 39 109 120 165 180 113
122 124 133 234 254 42 46 92 101 111 121 19 21 73 79 120 131 47 51 94 102
105 114 11 11 65 70 120 130 55 61 111 122 125 136 14 14 59 63 100 109 41 45
91 99 110 120 43 46 198 215 265 290 28 30 52 57 55 60 3 3 62 66 130 140 145
156 121 131 235 256 50 54 120 130 156 169 36 38 88 95 115 125 27 30 60 66
74 81 14 14 68 73 120 130 91 99 213 232 235 255 5 6 50 55 100 110 49 54 119
130 155 169 36 38 70 74 75 81 12 14 177 193 261 283 94 102 185 202 229 250
22 24 54 58 70 76 17 18 73 79 125 136 86 94 146 159 266 289 23 25 52 57 65
71 46 51 194 212 214 233 11 12 69 75 129 141 60 66 117 127 125 136 14 14 63
68 199 217 14 15 69 74 122 132 53 58 110 119 125 135 174 191 218 238 265
289 30 33 64 70 75 81 47 50 201 219 218 239 10 11 44 48 75 81 31 34 100 108
152 165 52 57 102 111 110 120 8 9 60 65 115 125 55 60 107 116 115 125 22 23
205 223 280 305 36 39 69 75 75 81 5 6 48 52 95 104 47 51 102 110 122 132 20
21 72 78 115 125 43 47 92 100 108 118 17 17 66 71 110 119 44 49 91 100 105
115 14 15 66 71 115 125 50 54 101 110 115 125 14 15 50 54 80 87 121 131 266
289 280 304 8 9 58 63 110 120 52 58 120 132 151 165 31 33 67 72 80 86 54 60
209 229 274 299 131 141 272 295 321 349 80 89 146 154 194 190 138 105 300
303 384 469 37 73 100 249 110 307 3 17 8 41 11 55 24 115 24 425 0 492 -2 7
-7 24 -9 38 -11 55 -17 77 -42 154 -70 212 -220 438 -387 581 -32 28 -64 55
-71 62 -34 30 -179 118 -246 150 -41 19 -114 48 -162 64 -155 52 -243 64 -453
63 -204 -1 -361 -35 -555 -123 -40 -17 -126 -73 -140 -90 -3 -4 -36 -33 -73
-66 -38 -32 -98 -88 -134 -122 -36 -35 -70 -60 -75 -57 -6 4 -8 3 -5 -3 3 -5
-19 -34 -50 -64 -41 -40 -51 -46 -37 -24 l18 30 -29 -25 c-17 -14 -32 -27 -35
-30 -3 -3 -34 -30 -70 -60 -36 -30 -67 -57 -70 -60 -3 -3 -48 -41 -100 -85
-94 -80 -143 -121 -164 -140 -6 -6 -72 -62 -146 -125 -74 -63 -137 -116 -140
-120 -3 -3 -45 -39 -95 -80 -49 -41 -92 -77 -95 -80 -3 -3 -34 -30 -70 -60
-77 -66 -119 -101 -134 -115 -6 -6 -87 -75 -181 -155 -93 -80 -181 -154 -195
-166 -14 -12 -200 -172 -415 -355 -214 -183 -422 -360 -461 -393 -39 -34 -95
-81 -124 -105 -29 -25 -58 -50 -64 -56 -6 -6 -101 -87 -211 -180 -110 -93
-205 -174 -211 -180 -6 -5 -35 -31 -65 -56 -276 -236 -435 -371 -480 -409 -29
-25 -72 -61 -94 -81 -22 -19 -164 -140 -315 -269 -151 -129 -277 -237 -280
-240 -3 -3 -34 -30 -70 -60 -36 -30 -67 -57 -70 -60 -3 -3 -32 -27 -65 -55
-33 -27 -62 -52 -65 -55 -8 -8 -73 -62 -120 -100 -24 -19 -51 -42 -59 -51 -15
-16 -35 -33 -162 -140 -47 -41 -328 -281 -399 -342 -25 -22 -266 -228 -324
-277 -16 -14 -42 -36 -57 -50 -15 -14 -43 -38 -63 -53 -19 -16 -52 -43 -73
-61 -52 -45 -212 -183 -243 -210 -14 -11 -52 -43 -85 -71 -33 -27 -62 -53 -65
-56 -3 -3 -81 -70 -175 -150 -93 -79 -176 -150 -184 -157 -7 -7 -67 -59 -133
-115 -181 -154 -175 -149 -593 -506 -413 -353 -410 -350 -635 -543 -80 -68
-158 -135 -175 -150 -30 -25 -148 -127 -254 -217 -30 -25 -75 -64 -101 -86
-48 -42 -81 -70 -275 -235 -66 -56 -136 -117 -155 -134 -19 -17 -48 -41 -63
-53 -15 -12 -55 -45 -89 -75 -89 -78 -147 -127 -208 -179 -48 -41 -135 -115
-349 -298 -30 -25 -59 -50 -65 -56 -6 -5 -47 -41 -91 -78 -44 -38 -89 -76
-100 -86 -11 -9 -130 -111 -265 -226 -135 -115 -247 -211 -250 -214 -3 -3 -27
-24 -53 -45 -27 -21 -56 -46 -65 -55 -15 -15 -90 -79 -171 -146 -13 -11 -29
-25 -35 -30 -6 -6 -90 -78 -186 -160 -96 -82 -186 -159 -200 -171 -14 -12 -79
-68 -145 -124 -66 -56 -145 -124 -175 -150 -30 -26 -154 -131 -275 -234 -121
-103 -233 -200 -250 -214 -102 -91 -156 -133 -169 -130 -8 2 -88 73 -177 158
-227 215 -347 329 -519 490 -38 35 -203 192 -360 340 -20 19 -91 85 -156 147
-65 61 -135 126 -154 145 -277 261 -368 347 -391 368 -15 14 -82 77 -150 142
-68 64 -140 131 -159 149 -19 18 -71 66 -115 108 -44 42 -152 144 -240 226
-87 83 -178 168 -201 190 -24 22 -100 94 -170 160 -70 66 -137 129 -149 140
-11 11 -92 88 -180 170 -87 83 -173 164 -190 180 -18 17 -94 89 -170 160 -190
178 -304 285 -405 381 -47 44 -116 110 -155 146 -38 36 -90 85 -115 108 -25
23 -112 106 -195 184 -222 209 -449 423 -515 485 -19 18 -91 86 -160 151 -69
65 -145 137 -170 160 -25 23 -103 97 -173 164 -71 66 -146 137 -166 156 -21
19 -100 94 -177 166 -76 73 -159 151 -184 174 -82 77 -292 274 -345 325 -29
28 -84 79 -122 115 -38 36 -131 124 -207 195 -76 72 -155 146 -175 165 -195
183 -345 324 -526 495 -81 77 -165 156 -185 175 -21 19 -102 96 -181 171 -79
75 -157 148 -174 163 -16 15 -62 58 -100 94 -111 106 -356 336 -405 382 -25
23 -108 101 -184 173 -151 143 -293 276 -342 323 -18 16 -90 84 -160 150 -71
67 -149 141 -174 164 -47 45 -283 267 -355 335 -76 73 -296 279 -331 311 -19
18 -34 36 -34 40 1 10 35 47 625 660 28 28 133 138 235 244 219 228 248 258
495 515 105 109 208 217 230 240 22 23 132 137 245 254 113 117 223 232 244
255 22 22 137 142 256 266 119 124 234 244 256 266 21 23 121 127 221 230 99
104 210 219 245 255 34 37 145 152 245 255 99 104 213 223 253 264 39 41 154
160 253 264 100 103 205 212 232 240 28 29 138 144 245 255 107 112 219 228
248 259 30 32 147 153 260 271 114 118 227 236 252 262 25 25 131 136 235 244
255 266 263 274 475 495 102 106 212 220 245 255 33 34 146 151 250 260 287
299 286 298 491 511 105 110 217 226 249 259 31 33 137 143 235 245 98 102
208 217 245 255 37 39 151 157 254 263 102 107 208 217 235 245 27 29 135 141
240 250 105 110 218 227 251 262 33 34 143 149 245 255 102 105 208 216 235
245 28 29 142 148 255 265 113 117 223 231 245 255 49 51 407 423 490 510 124
129 442 460 498 519 152 160 216 222 268 257 49 33 132 103 194 164 43 42 130
153 173 220 88 136 148 287 188 470 22 99 27 377 10 483 -31 183 -111 382
-224 552 -70 105 -240 277 -346 349 -142 96 -366 194 -496 215 -19 3 -46 8
-60 11 -39 8 -257 24 -263 19z"/>
</g>
</svg>
